<svg version="1.0" xmlns="http://www.w3.org/2000/svg" fill="#000000" role="img"
 width="1280.000000pt" height="1280.000000pt" viewBox="0 0 1280.000000 1280.000000"
 preserveAspectRatio="xMidYMid meet">

<g transform="translate(0.000000,1280.000000) scale(0.100000,-0.100000)">
<path d="M8960 12160 l0 -640 640 0 640 0 0 -640 0 -640 -640 0 -640 0 0 -640
0 -640 640 0 640 0 0 640 0 640 640 0 640 0 0 -640 0 -640 640 0 640 0 0 640
0 640 -640 0 -640 0 0 640 0 640 640 0 640 0 0 640 0 640 -640 0 -640 0 0
-640 0 -640 -640 0 -640 0 0 640 0 640 -640 0 -640 0 0 -640z" />
<path d="M2560 9600 l0 -640 -640 0 -640 0 0 -640 0 -640 640 0 640 0 0 640 0
640 1920 0 1920 0 0 -640 0 -640 -640 0 -640 0 0 -640 0 -640 -640 0 -640 0 0
-640 0 -640 -640 0 -640 0 0 -640 0 -640 -640 0 -640 0 0 -1280 0 -1280 3200
0 3200 0 0 640 0 640 -2560 0 -2560 0 0 640 0 640 640 0 640 0 0 640 0 640
640 0 640 0 0 640 0 640 640 0 640 0 0 640 0 640 640 0 640 0 0 640 0 640
-640 0 -640 0 0 640 0 640 -1920 0 -1920 0 0 -640z" />
</g>
</svg>
